<?xml version="1.0" standalone="no"?>
<!DOCTYPE svg PUBLIC "-//W3C//DTD SVG 20010904//EN"
 "http://www.w3.org/TR/2001/REC-SVG-20010904/DTD/svg10.dtd">
<svg version="1.0" xmlns="http://www.w3.org/2000/svg"
 width="375.000000pt" height="265.000000pt" viewBox="0 0 375.000000 265.000000"
 preserveAspectRatio="xMidYMid meet">
<metadata>
Created by potrace 1.11, written by Peter Selinger 2001-2013
</metadata>
<g transform="translate(0.000000,265.000000) scale(0.100000,-0.100000)"
fill="#000000" stroke="none">
<path d="M1024 2514 c-48 -17 -129 -83 -102 -84 9 0 31 -12 48 -27 30 -25 36
-26 158 -27 106 -1 134 -4 167 -21 22 -11 41 -28 43 -37 3 -16 0 -16 -40 2
-54 23 -157 35 -232 26 -52 -7 -57 -10 -71 -42 -8 -19 -29 -43 -50 -55 -30
-18 -35 -26 -35 -56 0 -204 242 -303 382 -156 43 45 60 98 56 172 -3 62 -2 65
22 71 51 12 37 92 -27 161 -76 82 -209 112 -319 73z"/>
<path d="M843 2391 c-82 -45 -178 -126 -211 -179 -99 -155 -43 -292 164 -403
l69 -36 5 -807 5 -808 33 -29 c48 -43 109 -41 160 5 l37 34 3 466 c3 456 3
466 22 466 20 0 20 -9 20 -445 0 -484 1 -491 55 -533 19 -15 42 -22 72 -22 38
0 50 5 79 34 l34 34 1 748 c1 676 2 746 16 714 32 -75 46 -183 49 -392 1 -127
7 -214 13 -227 22 -41 93 -41 123 -1 17 23 19 45 19 215 0 340 -46 522 -157
625 -47 43 -94 60 -173 60 -46 0 -52 -2 -47 -17 11 -28 19 -197 12 -245 -6
-42 -35 -88 -55 -88 -5 0 -12 39 -16 88 -10 124 -12 132 -45 132 -31 0 -32 -5
-46 -147 -3 -40 -11 -73 -15 -73 -21 0 -48 42 -55 86 -3 26 -4 96 0 155 l7
109 -39 0 c-83 0 -242 107 -242 164 0 37 81 122 164 170 70 41 93 77 76 120
-10 27 -47 56 -70 56 -8 0 -39 -13 -67 -29z"/>
<path d="M2005 2020 c-170 -11 -210 -18 -235 -38 -13 -11 -46 -81 -81 -172
l-59 -155 17 -97 18 -98 43 0 c36 0 49 -5 73 -31 64 -69 21 -179 -70 -179
l-41 0 0 -55 0 -55 185 0 184 0 3 108 3 107 30 0 30 0 3 -107 c2 -99 4 -108
22 -108 18 0 20 9 22 108 l3 107 30 0 30 0 3 -107 c2 -100 4 -108 22 -108 19
0 20 7 20 110 l0 110 30 0 29 0 3 -107 c3 -103 4 -108 26 -111 22 -3 22 -2 22
107 l0 111 30 0 30 0 0 -111 c0 -109 0 -110 23 -107 21 3 22 8 25 111 l3 107
29 0 30 0 0 -110 0 -110 300 0 300 0 0 128 c0 70 -5 144 -10 164 -14 47 -48
89 -105 125 -41 26 -48 36 -86 133 -22 58 -54 145 -71 193 -37 105 -49 114
-176 128 -128 13 -537 19 -687 9z m689 -110 c64 -6 94 -14 106 -27 15 -15 130
-254 130 -268 0 -3 -288 -5 -640 -5 l-640 0 14 33 c7 17 38 81 67 141 47 96
58 111 85 118 101 26 666 31 878 8z m245 -466 c85 -60 41 -194 -64 -194 -52 0
-105 53 -105 105 0 53 53 105 107 105 21 0 49 -7 62 -16z"/>
<path d="M2824 1416 c-39 -33 -39 -89 0 -122 31 -28 56 -30 95 -9 50 25 57 91
15 130 -34 32 -75 32 -110 1z"/>
<path d="M3007 1714 c-4 -4 -7 -18 -7 -31 0 -14 -6 -23 -15 -23 -18 0 -19 -11
-5 -42 11 -22 14 -23 118 -18 105 5 107 5 116 33 6 17 6 37 0 55 -9 27 -11 27
-105 30 -52 1 -98 0 -102 -4z"/>
<path d="M1674 1427 c-3 -8 -4 -45 -2 -83 3 -62 5 -69 25 -72 38 -6 81 24 88
62 8 38 -14 90 -40 100 -28 10 -65 7 -71 -7z"/>
<path d="M1670 1080 c0 -83 -48 -145 -122 -156 -37 -6 -38 -8 -38 -46 0 -74 7
-78 129 -78 76 0 112 4 119 13 6 7 12 35 14 62 l3 50 533 3 532 2 0 -53 c0
-29 5 -58 12 -65 8 -8 47 -12 108 -12 61 0 100 4 108 12 7 7 12 45 12 99 0 83
1 87 24 93 25 6 56 59 56 95 l0 21 -745 0 -745 0 0 -40z"/>
<path d="M1452 763 c3 -17 55 -18 906 -21 897 -2 902 -2 902 18 0 20 -6 20
-906 20 -857 0 -905 -1 -902 -17z"/>
</g>
</svg>
