<?xml version="1.0" standalone="no"?>
<!DOCTYPE svg PUBLIC "-//W3C//DTD SVG 20010904//EN"
 "http://www.w3.org/TR/2001/REC-SVG-20010904/DTD/svg10.dtd">
<svg version="1.0" xmlns="http://www.w3.org/2000/svg"
 width="375.000000pt" height="265.000000pt" viewBox="0 0 375.000000 265.000000"
 preserveAspectRatio="xMidYMid meet">
<metadata>
Created by potrace 1.11, written by Peter Selinger 2001-2013
</metadata>
<g transform="translate(0.000000,265.000000) scale(0.100000,-0.100000)"
fill="#000000" stroke="none">
<path d="M914 2532 c-87 -41 -144 -149 -130 -246 21 -137 175 -230 302 -181
138 53 194 197 126 326 -41 79 -91 111 -184 116 -57 3 -82 0 -114 -15z"/>
<path d="M1870 1830 l0 -330 190 0 190 0 0 -50 0 -50 -50 0 -50 0 0 -35 0 -35
260 0 260 0 0 29 c0 33 -14 41 -71 41 l-39 0 0 50 0 50 185 0 185 0 0 330 0
330 -530 0 -530 0 0 -330z m372 210 c15 -35 33 -60 42 -60 8 0 51 27 94 60
l80 60 206 0 206 0 0 -265 0 -265 -470 0 -470 0 0 95 0 95 31 0 c16 0 50 5 74
11 39 10 47 9 71 -10 34 -27 94 -29 94 -3 0 9 -11 49 -25 87 -13 39 -29 88
-35 111 -16 64 -46 85 -132 92 -66 6 -73 9 -76 30 -3 22 -3 22 140 22 l143 -1
27 -59z"/>
<path d="M2502 2050 c-43 -18 -93 -63 -120 -109 -22 -38 -27 -58 -26 -111 2
-170 156 -279 317 -224 97 33 169 154 153 256 -14 86 -81 167 -156 188 -43 12
-137 12 -168 0z m185 -31 c121 -59 155 -225 66 -328 -49 -58 -79 -71 -163 -71
-81 0 -113 13 -157 64 -41 46 -56 96 -51 167 11 148 168 234 305 168z"/>
<path d="M2493 1985 c-128 -77 -116 -264 22 -326 104 -47 225 11 256 123 42
158 -136 288 -278 203z m163 -9 c77 -36 115 -110 94 -185 -21 -78 -80 -123
-161 -123 -93 0 -159 65 -159 156 0 73 26 115 90 149 64 33 71 33 136 3z"/>
<path d="M2513 1939 c-98 -63 -64 -223 52 -245 120 -22 204 110 137 214 -34
53 -130 69 -189 31z m135 -13 c26 -13 43 -37 55 -78 9 -28 -12 -86 -40 -108
-18 -14 -40 -20 -73 -20 -58 0 -95 26 -109 77 -27 95 77 175 167 129z"/>
<path d="M2553 1904 c-42 -21 -60 -64 -43 -104 25 -59 85 -78 133 -40 51 41
42 116 -18 144 -39 19 -33 19 -72 0z"/>
<path d="M764 2020 c-109 -25 -194 -151 -239 -351 -12 -53 -18 -145 -22 -325
l-6 -250 33 -27 c39 -33 71 -34 104 -4 25 22 26 23 32 232 6 212 16 327 35
398 6 22 13 36 17 32 4 -4 9 -350 12 -769 6 -847 1 -792 73 -836 42 -26 76
-25 118 3 69 46 69 45 69 503 0 428 5 537 24 531 8 -3 13 -143 17 -468 6 -532
7 -540 72 -570 23 -10 53 -19 67 -19 38 0 85 33 105 76 18 37 19 82 23 797 3
447 8 755 13 750 25 -25 41 -158 46 -394 l6 -245 31 -22 c42 -29 71 -28 101 3
l25 24 0 238 c0 194 -4 255 -19 328 -34 163 -86 266 -164 329 -32 26 -49 31
-107 34 l-68 4 -6 -41 c-3 -23 -9 -59 -12 -81 -3 -22 -9 -40 -13 -40 -3 0 -25
24 -48 54 l-42 53 24 23 c14 13 25 27 25 32 0 4 -37 8 -82 8 l-82 0 28 -29
c18 -19 25 -34 21 -43 -20 -34 -77 -98 -84 -93 -5 2 -11 35 -15 72 -4 37 -12
73 -18 80 -11 14 -45 15 -94 3z"/>
<path d="M1590 1265 l0 -25 775 0 775 0 0 -90 0 -90 -783 0 c-734 0 -785 -1
-799 -17 -40 -47 -81 -45 776 -37 l806 7 0 -451 0 -452 60 0 60 0 0 444 0 444
40 7 c44 7 53 15 44 39 -4 11 -19 16 -45 16 l-39 0 0 89 0 90 43 3 c35 2 43 7
45 26 l3 22 -880 0 -881 0 0 -25z"/>
</g>
</svg>
