<?xml version="1.0" standalone="no"?>
<!DOCTYPE svg PUBLIC "-//W3C//DTD SVG 20010904//EN"
 "http://www.w3.org/TR/2001/REC-SVG-20010904/DTD/svg10.dtd">
<svg version="1.0" xmlns="http://www.w3.org/2000/svg"
 width="248.000000pt" height="65.000000pt" viewBox="0 0 248.000000 65.000000"
 preserveAspectRatio="xMidYMid meet">
<metadata>
Created by potrace 1.11, written by Peter Selinger 2001-2013
</metadata>
<g transform="translate(0.000000,65.000000) scale(0.100000,-0.100000)"
fill="#000000" stroke="none">
<path d="M390 425 l0 -185 560 0 560 0 0 185 0 185 -560 0 -560 0 0 -185z"/>
<path d="M1620 431 l0 -178 38 -7 c20 -3 207 -6 415 -6 l377 0 0 185 0 185
-415 0 -415 0 0 -179z"/>
<path d="M132 503 l-54 -4 -22 -52 c-54 -123 -59 -148 -51 -240 4 -48 11 -85
16 -82 4 3 16 22 25 42 48 99 183 96 228 -6 l19 -41 236 0 236 0 17 40 17 40
-208 0 c-115 0 -223 3 -240 6 l-31 7 0 117 c0 65 -3 132 -6 149 -6 31 -7 31
-68 29 -33 -1 -85 -3 -114 -5z m98 -97 l0 -74 -67 -8 c-127 -13 -128 -13 -126
20 1 16 12 49 25 75 24 48 37 54 141 59 l27 2 0 -74z"/>
<path d="M105 177 c-59 -50 -22 -147 56 -147 29 0 43 7 63 31 33 39 33 69 0
108 -32 39 -80 42 -119 8z"/>
<path d="M854 188 c-48 -23 -57 -92 -18 -132 69 -68 183 8 139 93 -25 48 -71
63 -121 39z"/>
<path d="M1204 188 c-48 -23 -57 -92 -18 -132 69 -68 183 8 139 93 -25 48 -71
63 -121 39z"/>
<path d="M1715 175 c-53 -52 -14 -144 62 -145 48 0 87 38 87 85 0 75 -96 114
-149 60z"/>
<path d="M2186 179 c-36 -28 -37 -89 -1 -124 51 -52 145 -16 145 54 0 17 -11
42 -26 60 -31 38 -78 41 -118 10z"/>
</g>
</svg>
