<?xml version="1.0" standalone="no"?>
<!DOCTYPE svg PUBLIC "-//W3C//DTD SVG 20010904//EN"
 "http://www.w3.org/TR/2001/REC-SVG-20010904/DTD/svg10.dtd">
<svg version="1.0" xmlns="http://www.w3.org/2000/svg"
 width="121.000000pt" height="62.000000pt" viewBox="0 0 121.000000 62.000000"
 preserveAspectRatio="xMidYMid meet">
<metadata>
Created by potrace 1.11, written by Peter Selinger 2001-2013
</metadata>
<g transform="translate(0.000000,62.000000) scale(0.100000,-0.100000)"
fill="#000000" stroke="none">
<path d="M410 420 l0 -180 390 0 390 0 0 180 0 180 -390 0 -390 0 0 -180z"/>
<path d="M130 491 c-32 -6 -37 -12 -67 -81 -29 -68 -32 -85 -32 -182 -1 -113
8 -134 33 -74 29 71 126 102 183 60 16 -12 38 -39 51 -62 l23 -42 232 0 232 0
16 39 16 38 -150 6 c-83 4 -190 7 -239 7 l-88 0 0 150 0 150 -87 -1 c-49 -1
-104 -4 -123 -8z m123 -60 c2 -22 2 -54 -2 -73 -6 -30 -11 -34 -51 -40 -25 -3
-69 -7 -98 -7 -52 -1 -52 -1 -46 27 4 15 15 48 26 74 22 51 28 54 119 57 l46
1 6 -39z"/>
<path d="M120 170 c-33 -33 -30 -95 6 -128 36 -32 79 -29 116 8 26 27 30 36
25 68 -4 20 -16 45 -28 55 -30 24 -94 22 -119 -3z"/>
<path d="M872 183 c-16 -6 -42 -56 -42 -82 0 -11 11 -32 24 -48 19 -22 32 -28
66 -28 35 0 46 6 66 30 31 39 30 66 -2 104 -20 25 -33 31 -62 30 -21 0 -43 -3
-50 -6z"/>
</g>
</svg>
